<svg xmlns="http://www.w3.org/2000/svg" version="1.1" xmlns:xlink="http://www.w3.org/1999/xlink" xmlns:svgjs="http://svgjs.dev/svgjs" width="2000" height="1500" viewBox="0 0 2000 1500"><rect width="2000" height="1500" fill="#a1cf6b"></rect><g transform="matrix(0.75,0,0,0.75,249.090909090909,645.6114877908535)"><svg viewBox="0 0 396 55" data-background-color="#a1cf6b" preserveAspectRatio="xMidYMid meet" height="277" width="2000" xmlns="http://www.w3.org/2000/svg" xmlns:xlink="http://www.w3.org/1999/xlink"><g id="tight-bounds" transform="matrix(1,0,0,1,0.2400000000000091,0.13594787727103608)"><svg viewBox="0 0 395.52 54.72810424545793" height="54.72810424545793" width="395.52"><g><svg viewBox="0 0 472.1989750975975 65.33817438748915" height="54.72810424545793" width="395.52"><g transform="matrix(1,0,0,1,76.67897509759753,9.030095013032149)"><svg viewBox="0 0 395.52 47.27798436142485" height="47.27798436142485" width="395.52"><g id="textblocktransform"><svg viewBox="0 0 395.52 47.27798436142485" height="47.27798436142485" width="395.52" id="textblock"><g><svg viewBox="0 0 395.52 47.27798436142485" height="47.27798436142485" width="395.52"><g transform="matrix(1,0,0,1,0,0)"><svg width="395.52" viewBox="1.88 -39.6 337.18 40.31" height="47.27798436142485" data-palette-color="#2b461c"><path d="M20.14 0.71L20.14 0.71Q18.14 0.71 16.72 0.42 15.31 0.12 14.1-0.54 12.89-1.2 11.52-2.25L11.52-2.25 10.67 0 2.78 0 2.78-11.89 10.62-11.89Q11.38-9.84 12.95-9 14.53-8.15 16.82-8.15L16.82-8.15Q18.24-8.15 19.24-8.73 20.24-9.3 20.24-10.25L20.24-10.25Q20.24-11.45 19.21-12.05 18.19-12.65 16.33-13.16L16.33-13.16Q13.96-13.79 12.05-14.5 10.13-15.21 8.62-15.97L8.62-15.97Q5.59-17.48 3.74-20.26 1.88-23.05 1.88-27.66L1.88-27.66Q1.88-31.2 3.42-33.91L3.42-33.91Q4.93-36.6 7.78-38.1 10.62-39.6 14.48-39.6L14.48-39.6Q19.19-39.6 21.92-36.6L21.92-36.6 23.17-38.89 30.18-38.89 30.18-27.25 22.68-27.25Q21.63-29.44 20.36-30.3 19.09-31.15 16.87-31.15L16.87-31.15Q15.19-31.15 14.26-30.55 13.33-29.96 13.33-28.91L13.33-28.91Q13.33-27.73 14.67-27.12L14.67-27.12Q15.99-26.49 18.43-25.95L18.43-25.95Q22.71-24.98 25.81-23.49L25.81-23.49Q28.83-22 30.65-19.27 32.47-16.55 32.47-12.26L32.47-12.26Q32.47-8.62 30.96-5.66L30.96-5.66Q29.42-2.71 26.6-1 23.78 0.71 20.14 0.71ZM48.41 0.44L48.41 0.44Q39.01 0.44 39.01-9.35L39.01-9.35 39.01-18.99 35.1-18.99 35.1-26.15 39.01-26.15 39.01-31.74 50.71-34.35 50.71-26.15 55.39-26.15 55.39-18.99 50.71-18.99 50.71-10.21Q50.71-9.11 51.54-8.37 52.37-7.64 53.61-7.64L53.61-7.64Q54.51-7.64 55.39-7.79L55.39-7.79 55.39-1Q52.17 0.44 48.41 0.44ZM77.9-7.35L77.9 0 59.15 0 59.15-7.35 62.3-7.35 62.3-18.6 59.15-18.6 59.15-25.2 73.99-26.66 73.99-22.41Q74.78-23.63 76.29-24.6 77.8-25.56 79.52-26.11 81.25-26.66 82.61-26.66L82.61-26.66 82.61-16.31Q79.76-17.26 77.9-17.26L77.9-17.26Q75.56-17.26 74.78-15.91 73.99-14.55 73.99-12.35L73.99-12.35 73.99-7.35 77.9-7.35ZM100.14 0.44L100.14 0.44Q95.6 0.44 92.25-1.25L92.25-1.25Q88.88-2.91 87.09-6.01 85.3-9.11 85.3-13.26L85.3-13.26Q85.3-17.36 87.05-20.39L87.05-20.39Q88.79-23.39 91.96-25.02 95.13-26.66 99.41-26.66L99.41-26.66Q103.34-26.66 106.34-25.12L106.34-25.12Q109.34-23.56 110.99-20.7 112.64-17.85 112.64-14.04L112.64-14.04Q112.64-12.72 112.25-11.55L112.25-11.55 97.04-11.55Q97.04-9.25 98.77-7.87 100.51-6.49 102.95-6.49L102.95-6.49Q104.8-6.49 107.02-7.14 109.25-7.79 111.49-9.16L111.49-9.16 111.91-9.01 111.91-2.44Q109.39-1 106.74-0.28 104.09 0.44 100.14 0.44ZM97.04-16.55L97.04-16.55 97.04-15.84 103.29-15.84 103.29-16.36Q103.29-18.09 102.49-19.35 101.7-20.61 100.14-20.61L100.14-20.61Q98.85-20.61 97.94-19.32 97.04-18.04 97.04-16.55ZM131.26 0.44L131.26 0.44Q126.72 0.44 123.38-1.25L123.38-1.25Q120.01-2.91 118.22-6.01 116.42-9.11 116.42-13.26L116.42-13.26Q116.42-17.36 118.18-20.39L118.18-20.39Q119.91-23.39 123.09-25.02 126.26-26.66 130.53-26.66L130.53-26.66Q134.46-26.66 137.47-25.12L137.47-25.12Q140.47-23.56 142.12-20.7 143.76-17.85 143.76-14.04L143.76-14.04Q143.76-12.72 143.37-11.55L143.37-11.55 128.16-11.55Q128.16-9.25 129.9-7.87 131.63-6.49 134.07-6.49L134.07-6.49Q135.93-6.49 138.15-7.14 140.37-7.79 142.62-9.16L142.62-9.16 143.03-9.01 143.03-2.44Q140.52-1 137.87-0.28 135.22 0.44 131.26 0.44ZM128.16-16.55L128.16-16.55 128.16-15.84 134.41-15.84 134.41-16.36Q134.41-18.09 133.62-19.35 132.83-20.61 131.26-20.61L131.26-20.61Q129.97-20.61 129.07-19.32 128.16-18.04 128.16-16.55ZM160.09 0.44L160.09 0.44Q150.7 0.44 150.7-9.35L150.7-9.35 150.7-18.99 146.79-18.99 146.79-26.15 150.7-26.15 150.7-31.74 162.39-34.35 162.39-26.15 167.08-26.15 167.08-18.99 162.39-18.99 162.39-10.21Q162.39-9.11 163.22-8.37 164.05-7.64 165.3-7.64L165.3-7.64Q166.2-7.64 167.08-7.79L167.08-7.79 167.08-1Q163.85 0.44 160.09 0.44ZM202.42 0.71L202.42 0.71Q200.42 0.71 199.01 0.42 197.59 0.12 196.38-0.54 195.17-1.2 193.81-2.25L193.81-2.25 192.95 0 185.07 0 185.07-11.89 192.9-11.89Q193.66-9.84 195.23-9 196.81-8.15 199.1-8.15L199.1-8.15Q200.52-8.15 201.52-8.73 202.52-9.3 202.52-10.25L202.52-10.25Q202.52-11.45 201.5-12.05 200.47-12.65 198.62-13.16L198.62-13.16Q196.25-13.79 194.33-14.5 192.41-15.21 190.9-15.97L190.9-15.97Q187.87-17.48 186.02-20.26 184.16-23.05 184.16-27.66L184.16-27.66Q184.16-31.2 185.7-33.91L185.7-33.91Q187.21-36.6 190.06-38.1 192.9-39.6 196.76-39.6L196.76-39.6Q201.47-39.6 204.21-36.6L204.21-36.6 205.45-38.89 212.46-38.89 212.46-27.25 204.96-27.25Q203.91-29.44 202.64-30.3 201.37-31.15 199.15-31.15L199.15-31.15Q197.47-31.15 196.54-30.55 195.61-29.96 195.61-28.91L195.61-28.91Q195.61-27.73 196.96-27.12L196.96-27.12Q198.27-26.49 200.71-25.95L200.71-25.95Q204.99-24.98 208.09-23.49L208.09-23.49Q211.12-22 212.93-19.27 214.75-16.55 214.75-12.26L214.75-12.26Q214.75-8.62 213.24-5.66L213.24-5.66Q211.7-2.71 208.88-1 206.06 0.71 202.42 0.71ZM232.99 0.44L232.99 0.44Q228.52 0.44 225.2-1.27L225.2-1.27Q221.86-2.95 220-6.05 218.14-9.16 218.14-13.35L218.14-13.35Q218.14-17.14 219.71-20.17L219.71-20.17Q221.24-23.19 224.11-24.93 226.98-26.66 230.79-26.66L230.79-26.66Q232.23-26.66 233.84-26.31 235.45-25.95 236.74-25.27 238.02-24.58 238.43-23.56L238.43-23.56 239.43-26.15 244.76-26.15 244.76-15.36 237.7-15.36Q237.5-17.31 236.55-18.41 235.6-19.51 234.18-19.51L234.18-19.51Q232.08-19.51 230.99-18.18 229.89-16.85 229.89-13.31L229.89-13.31Q229.89-10.86 230.78-9.46 231.67-8.06 233.1-7.46 234.53-6.86 236.14-6.86L236.14-6.86Q237.9-6.86 239.95-7.48 242-8.11 243.58-9.45L243.58-9.45 243.95-9.2 243.95-2.39Q243.95-2.29 242.46-1.56L242.46-1.56Q240.97-0.81 238.51-0.18 236.04 0.44 232.99 0.44ZM263.72 0.44L263.72 0.44Q259.28 0.44 255.98-1.2L255.98-1.2Q252.64-2.81 250.78-5.93 248.93-9.06 248.93-13.35L248.93-13.35Q248.93-17.63 250.78-20.61L250.78-20.61Q252.64-23.61 255.98-25.13 259.33-26.66 263.72-26.66L263.72-26.66Q268.24-26.66 271.57-25.1 274.9-23.54 276.74-20.57 278.57-17.6 278.57-13.35L278.57-13.35Q278.57-9.06 276.74-5.93L276.74-5.93Q274.88-2.81 271.52-1.18 268.17 0.44 263.72 0.44ZM263.72-6.69L263.72-6.69Q265.33-6.69 266.12-8.28L266.12-8.28Q266.87-9.81 266.87-13.35L266.87-13.35Q266.87-16.6 266.13-18.05 265.38-19.51 263.72-19.51L263.72-19.51Q262.14-19.51 261.38-18.05 260.62-16.6 260.62-13.35L260.62-13.35Q260.62-9.89 261.4-8.28L261.4-8.28Q262.18-6.69 263.72-6.69ZM292.99 0.44L292.99 0.44Q285.13 0.44 285.13-9.4L285.13-9.4 285.13-18.6 281.98-18.6 281.98-25.2 296.83-26.66 296.83-9.4Q296.83-8.45 297.53-7.65 298.24-6.86 299.19-6.86L299.19-6.86Q300.29-6.86 300.91-7.6 301.54-8.35 301.54-9.45L301.54-9.45 301.54-18.6 299.19-18.6 299.19-25.2 313.23-26.66 313.23-7.35 316.38-7.35 316.38 0 301.54 0 301.54-3.81Q300.24-1.81 298.08-0.68 295.92 0.44 292.99 0.44ZM332.08 0.44L332.08 0.44Q322.68 0.44 322.68-9.35L322.68-9.35 322.68-18.99 318.77-18.99 318.77-26.15 322.68-26.15 322.68-31.74 334.37-34.35 334.37-26.15 339.06-26.15 339.06-18.99 334.37-18.99 334.37-10.21Q334.37-9.11 335.2-8.37 336.03-7.64 337.28-7.64L337.28-7.64Q338.18-7.64 339.06-7.79L339.06-7.79 339.06-1Q335.84 0.44 332.08 0.44Z" opacity="1" transform="matrix(1,0,0,1,0,0)" fill="#2b461c" class="wordmark-text-0" data-fill-palette-color="primary" id="text-0"></path></svg></g></svg></g></svg></g></svg></g><g><svg viewBox="0 0 65.5177776614898 65.33817438748915" height="65.33817438748915" width="65.5177776614898"><g><svg xmlns="http://www.w3.org/2000/svg" xmlns:xlink="http://www.w3.org/1999/xlink" version="1.1" x="0" y="0" viewBox="10.603 10.71 78.795 78.57900000000001" enable-background="new 0 0 100 100" xml:space="preserve" height="65.33817438748915" width="65.5177776614898" class="icon-icon-0" data-fill-palette-color="accent" id="icon-0"><path d="M79.236 48.382L79.894 48.322C79.106 39.623 71.023 32.886 61.43 32.886L61.168 32.887C56.553 32.958 52.241 34.54 48.895 37.333A20 20 0 0 0 40.74 35.698C36.807 35.751 33.167 36.891 30.179 38.828L23.373 10.71 20.457 11.416 27.588 40.876A16.8 16.8 0 0 0 24.349 45.07L13.462 21.673 10.742 22.939 22.581 48.382H10.603V49.882C10.603 71.611 28.274 89.289 49.996 89.289 71.723 89.289 89.398 71.611 89.398 49.882V48.382zM61.212 35.888L61.436 35.887C69.403 35.887 76.114 41.325 76.876 48.382H58.938C57.846 44.488 55.26 41.158 51.787 38.888 54.453 37.003 57.726 35.942 61.212 35.888M40.779 38.7C47.774 38.605 53.792 42.682 55.799 48.383H26.172C28.171 42.781 34.059 38.791 40.779 38.7M49.995 86.29C30.43 86.29 14.422 70.766 13.633 51.383H56.469L56.471 51.395 56.601 51.383H86.368C85.578 70.765 69.564 86.29 49.995 86.29" fill="#2b461c" data-fill-palette-color="accent"></path></svg></g></svg></g></svg></g><defs></defs></svg><rect width="395.52" height="54.72810424545793" fill="none" stroke="none" visibility="hidden"></rect></g></svg></g></svg>